<svg class="canvas" viewBox="0 0 1920 1080" preserveAspectRatio="xMaxYMid slice" xmlns="http://www.w3.org/2000/svg" version="1.1" xmlns:xlink="http://www.w3.org/1999/xlink" xmlns:svgjs="http://svgjs.dev/svgjs"><rect width="1920" height="1080" fill="hsl(178, 65%, 15%)"></rect><defs><linearGradient x1="0.5" y1="0" x2="0" y2="1" id="SvgjsLinearGradient1049"><stop stop-color="#288a60" offset="0"></stop><stop stop-color="#060c14" offset="0.1"></stop></linearGradient><linearGradient x1="0.5" y1="0" x2="0" y2="1" id="SvgjsLinearGradient1050"><stop stop-color="#288a73" offset="0"></stop><stop stop-color="#060914" offset="0.22857142857142856"></stop></linearGradient><linearGradient x1="0.5" y1="0" x2="0" y2="1" id="SvgjsLinearGradient1051"><stop stop-color="#288a73" offset="0"></stop><stop stop-color="#060914" offset="0.3571428571428571"></stop></linearGradient><linearGradient x1="0.5" y1="0" x2="0" y2="1" id="SvgjsLinearGradient1052"><stop stop-color="#c0f2d2" offset="0"></stop><stop stop-color="#42a0d7" offset="0.48571428571428565"></stop></linearGradient><linearGradient x1="0.5" y1="0" x2="0" y2="1" id="SvgjsLinearGradient1053"><stop stop-color="#c0f2dc" offset="0"></stop><stop stop-color="#4282d7" offset="0.6142857142857142"></stop></linearGradient><linearGradient x1="0.5" y1="0" x2="0" y2="1" id="SvgjsLinearGradient1054"><stop stop-color="#c0f2e6" offset="0"></stop><stop stop-color="#4264d7" offset="0.7428571428571429"></stop></linearGradient><linearGradient x1="0.5" y1="0" x2="0" y2="1" id="SvgjsLinearGradient1055"><stop stop-color="#c0f2d2" offset="0"></stop><stop stop-color="#42a0d7" offset="0.8714285714285713"></stop></linearGradient></defs><path d="M0,-567.857750622821C36.52917812169051,-560.1605533671669,133.80519670694616,-547.8868237426694,219.17506873014304,-521.6745670888965C304.5449407533399,-495.4623104351237,424.8758881506149,-434.9093300993316,512.2192321391813,-410.58421070018386C599.5625761277477,-386.2590913010361,668.9116976050259,-393.68446435151554,743.2351326615411,-375.72385069401014C817.5585677180563,-357.76323703650473,890.6010984329232,-319.4051620811432,958.1598424782727,-302.8205287551516C1025.7185865236222,-286.23589542916,1063.9019579247574,-301.8173472507541,1148.587596933638,-276.21605073806063C1233.2732359425186,-250.61475422536716,1381.2340761412936,-181.6411375311278,1466.2736765315567,-149.21274967899075C1551.3132769218198,-116.78436182685368,1583.2041453638092,-101.87155680126656,1658.8251992752164,-81.64572362523828C1734.4462531866236,-61.41989044920999,1876.4708665458693,-36.822412789890535,1920,-27.857750622820987L 1920 1080 L 0 1080 Z" fill="url(&quot;#SvgjsLinearGradient1049&quot;)"></path><path d="M0,-384.6139905141015C72.83533274067842,-362.9129321483114,271.2161310622182,-308.50612027511687,437.0119964440706,-254.4076403193612C602.8078618259229,-200.30916036360557,831.5936508549621,-109.65472932797812,994.7751922911143,-60.0231107795676C1157.9567337272665,-10.391492231157095,1261.897110442836,5.099598545905124,1416.1012450609837,43.38207097110186C1570.3053796791314,81.6645433962986,1836.0168741768307,148.623448304861,1920,169.67172377161282L 1920 1080 L 0 1080 Z" fill="url(&quot;#SvgjsLinearGradient1050&quot;)"></path><path d="M0,-268.1418142757913C67.11286188493919,-250.8942598099679,275.7559843742333,-196.7288882386426,402.6771713096352,-164.6564874808509C529.598358245037,-132.5840867230592,636.1988753610118,-122.14878101990094,761.5271216124112,-75.70740972904103C886.8553678638106,-29.266038438181127,1022.1974847333029,66.9218013956178,1154.6466488180313,113.99174026430855C1287.0958129027597,161.0616791329993,1428.6632142571204,175.63924447788196,1556.222106120782,206.71222348310343C1683.7809979844435,237.7852024883249,1859.3703510201303,284.810049160215,1920,300.4296142956373L 1920 1080 L 0 1080 Z" fill="url(&quot;#SvgjsLinearGradient1051&quot;)"></path><path d="M0,-120.37026798862247C35.055556583129125,-108.35272874355695,131.68905347407681,-76.52298690051775,210.33333949877473,-48.265032518229326C288.9776255234726,-20.007078135940905,394.8073387987521,24.30638623833585,471.8657161481875,49.17745830510805C548.924093497623,74.04853037188025,598.7006100262714,74.43208073349051,672.6836035953872,100.96139988240384C746.6665971645031,127.49071903131717,824.1141419533576,177.9445314473676,915.7636775628823,208.353373198588C1007.413213172407,238.7622149498084,1137.4269367771137,257.921191912415,1222.5808172525353,283.41445038972614C1307.734697727957,308.9077088670373,1358.1008169627146,339.7853712146569,1426.6869604154122,361.31292406245484C1495.2731038681097,382.8404769102528,1551.8788380379558,395.7174423421697,1634.0976779687205,412.57976747651395C1716.3165178994852,429.4420926108582,1872.3496129947866,454.16902363651934,1920,462.48687486852043L 1920 1080 L 0 1080 Z" fill="url(&quot;#SvgjsLinearGradient1052&quot;)"></path><path d="M0,3.231117868351177C63.246262536574335,18.290554999925746,246.45799308288977,47.18209792517736,379.477575219446,93.58774065779859C512.4971573560023,139.9933833904198,667.4190228497496,233.77873306307274,798.1174928193375,281.6649742640786C928.8159627889254,329.5512154650844,1034.9955377731453,343.21191918343766,1163.6683950369734,380.9051878638336C1292.3412523008014,418.5984565442295,1444.099368908468,471.24645515522496,1570.1546364023059,507.8245863464541C1696.2099038961437,544.4027175376832,1861.6924394003843,584.949076900416,1920,600.3739750112084L 1920 1080 L 0 1080 Z" fill="url(&quot;#SvgjsLinearGradient1053&quot;)"></path><path d="M0,102.19180511849801C83.75900166887573,134.72873613656787,337.876111181889,238.29933340724867,502.55401001325436,297.41339122691716C667.2319088446197,356.5274490465856,837.0158488613912,411.3020302751298,988.0673929881925,456.8761520365089C1139.118937114994,502.45027379788803,1253.541173605428,528.0674177100984,1408.8632747740626,570.8581217951919C1564.1853759426972,613.6488258802854,1834.8105457956772,689.8266674217565,1920,713.6203765470694L 1920 1080 L 0 1080 Z" fill="url(&quot;#SvgjsLinearGradient1054&quot;)"></path><path d="M0,263.4123938209875C50.518674428646996,285.5580895346693,194.39575065560308,366.19287916363584,303.112046571882,396.2865681030784C411.8283424881609,426.380257042521,544.327744429281,410.61087251682204,652.2977754976736,443.97452745764303C760.2678065660662,477.338182398464,841.4846578062271,554.8642415309063,950.9322329822378,596.4684977480042C1060.3798081582486,638.0727539651022,1199.6903975030623,666.2858113708944,1308.9832265537377,693.6000647602306C1418.2760556044132,720.9143181495667,1504.8530783785793,727.7662489548471,1606.6892072862897,760.3540180840209C1708.5253361940001,792.9417872131947,1867.781534547715,867.6645692933979,1920,889.1266795352733L 1920 1080 L 0 1080 Z" fill="url(&quot;#SvgjsLinearGradient1055&quot;)"></path></svg>